#N canvas 794 40 450 300 10;
#X msg 158 99 refresh;
#X msg 168 121 print;
#X obj 128 16 hradio 15 1 0 8 empty empty empty 0 -8 0 10 -262144 -1
-1 0;
#X floatatom 128 37 5 0 0 0 - - -;
#X msg 129 62 open \$1;
#X obj 110 93 tgl 15 0 empty empty empty 17 7 0 10 -262144 -1 -1 0
1;
#X obj 160 172 print;
#X obj 157 206 route abs key;
#X floatatom 159 270 5 0 0 0 - - -;
#X floatatom 201 271 5 0 0 0 - - -;
#X floatatom 244 272 5 0 0 0 - - -;
#X obj 159 241 route abs_x abs_y;
#X obj 159 145 hid;
#X connect 0 0 12 0;
#X connect 1 0 12 0;
#X connect 2 0 3 0;
#X connect 3 0 4 0;
#X connect 4 0 12 0;
#X connect 5 0 12 0;
#X connect 7 0 11 0;
#X connect 11 0 8 0;
#X connect 11 1 9 0;
#X connect 11 2 10 0;
#X connect 12 0 6 0;
#X connect 12 0 7 0;
